<?xml version="1.0" encoding="utf-8"?>
<svg id="svg2" viewBox="0 0 459.771 358.753" xmlns="http://www.w3.org/2000/svg">
  <desc>Source: openclipart.org/detail/209545</desc>
  <path fill="#1C6CE5" d="M 250.284 142.48 C 266.534 140.535 283.919 141.646 300.298 141.719 C 322.214 141.815 344.619 141.153 366.448 142.99 C 351.307 167.302 302.374 214.255 273.004 221.152 C 261.074 223.955 248.729 223.189 236.583 222.792 C 234.192 222.182 231.79 221.665 229.364 221.181 C 232.524 220.783 235.797 220.739 238.975 220.548 C 245.783 199.078 251.875 165.078 250.284 142.48 Z" style=""/>
  <path fill="#234EC5" d="M 109.829 112.067 C 158.411 112.387 207.046 110.422 255.652 111.832 C 252.958 118.576 245.163 135.238 247.714 141.762 L 250.284 142.48 C 251.875 165.078 245.783 199.078 238.975 220.548 C 235.797 220.739 232.524 220.783 229.364 221.181 C 231.79 221.665 234.192 222.182 236.583 222.792 C 228.309 222.896 220.035 222.806 211.768 222.522 C 208.378 236.294 201.922 251.46 194.444 263.521 C 161.825 316.14 77.919 332.246 22.042 345.447 L 45.405 281.808 C 52.749 262.375 60.758 242.996 66.596 223.055 C 48.457 224.685 28.881 223.203 10.575 223.351 C 25.838 213.449 39.111 199.13 52.671 187.027 C 66.706 174.491 82.761 162.426 94.965 148.079 C 98.109 144.379 100.103 140.171 102.025 135.745 C 104.484 127.802 107.087 119.913 109.829 112.067 Z" style=""/>
  <path fill="#1C6CE5" d="M 90.683 149.643 C 97.814 148.889 104.667 147.081 111.797 146.37 C 130.624 144.484 179.265 142.337 196.237 145.946 L 197.484 147.089 C 196.625 150.939 194.61 154.368 193.338 158.103 C 186.711 177.556 179.229 193.261 160.508 204.841 C 152.925 209.531 144.427 212.397 135.895 215.041 C 108.088 223.659 88.14 223.019 59.648 223.176 C 43.759 224.55 26.61 223.303 10.575 223.427 C 23.944 215.087 35.572 203.028 47.451 192.833 C 59.746 182.277 73.809 172.114 84.5 160.031 C 87.252 156.916 88.999 153.37 90.683 149.643 Z" style=""/>
  <path fill="#0D92F4" d="M 38.209 112.114 C 71.113 85.826 93.905 44.704 131.673 20.596 C 142.803 13.492 155.999 9.51 169.038 7.908 C 201.812 3.877 249.248 6.916 283.32 7.079 C 340.837 7.358 398.421 6.019 455.929 7.334 C 458.877 17.624 446.154 38.869 440.997 48.174 C 425.299 76.485 396.509 96.771 365.682 105.609 C 331.385 115.44 291.086 111.663 255.652 111.832 C 207.046 110.422 158.411 112.387 109.829 112.067 C 85.953 111.745 62.08 111.764 38.209 112.114 Z" style=""/>
  <rect x="94.654" y="145.266" width="161.075" height="75.935" style="paint-order: fill; fill-rule: nonzero; fill: rgb(28, 108, 229);"/>
</svg>