<?xml version="1.0" encoding="UTF-8"?>
<svg xmlns="http://www.w3.org/2000/svg" xmlns:xlink="http://www.w3.org/1999/xlink" width="66px" height="40px" viewBox="0 0 66 40" version="1.1">
<g id="surface1">
<path style=" stroke:none;fill-rule:nonzero;fill:rgb(94.117647%,17.254902%,11.764706%);fill-opacity:1;" d="M 45.449219 3.582031 C 43.386719 3.789062 41.46875 4.324219 39.636719 5.246094 C 35.246094 7.453125 32.433594 10.6875 31.015625 15.152344 C 30.5625 16.597656 30.109375 18.910156 30.191406 19.433594 C 30.230469 19.738281 30.273438 19.710938 30.742188 19.105469 C 31.125 18.609375 31.320312 18.152344 31.527344 17.246094 C 32.296875 13.96875 33.605469 11.554688 35.808594 9.351562 C 37.214844 7.949219 38.316406 7.148438 40.160156 6.210938 C 44.5 3.996094 50.09375 4.105469 54.511719 6.488281 C 58.753906 8.761719 61.757812 12.933594 62.597656 17.742188 C 63.796875 24.640625 60.285156 31.488281 53.921875 34.667969 C 48.730469 37.257812 42.253906 36.667969 37.640625 33.183594 C 36.816406 32.546875 36.691406 32.492188 36.210938 32.574219 C 35.90625 32.628906 35.644531 32.726562 35.601562 32.78125 C 35.519531 32.921875 37.050781 34.1875 38.011719 34.78125 C 42.847656 37.808594 49.417969 38.183594 54.335938 35.703125 C 58.164062 33.789062 60.988281 30.8125 62.527344 27.078125 C 63.507812 24.710938 63.90625 22.808594 63.90625 20.480469 C 63.90625 17.714844 63.3125 15.191406 62.101562 12.796875 C 61.289062 11.15625 60.628906 10.234375 59.222656 8.773438 C 56.839844 6.265625 54.101562 4.710938 50.726562 3.925781 C 49.925781 3.734375 47.144531 3.414062 46.691406 3.457031 C 46.582031 3.472656 46.015625 3.527344 45.449219 3.582031 Z M 45.449219 3.582031 "/>
<path style=" stroke:none;fill-rule:nonzero;fill:rgb(94.117647%,17.254902%,11.764706%);fill-opacity:1;" d="M 45.105469 5.523438 C 43.90625 5.6875 42.035156 6.183594 41.910156 6.378906 C 41.800781 6.542969 41.757812 14.875 41.871094 15.539062 L 41.9375 15.976562 L 47.101562 13.003906 C 49.941406 11.351562 53.011719 9.574219 53.90625 9.050781 L 55.546875 8.085938 L 55.214844 7.835938 C 54.597656 7.355469 52.40625 6.351562 51.234375 6.019531 C 49.210938 5.425781 47.160156 5.261719 45.105469 5.523438 Z M 45.105469 5.523438 "/>
<path style=" stroke:none;fill-rule:nonzero;fill:rgb(94.117647%,17.254902%,11.764706%);fill-opacity:1;" d="M 39.445312 7.464844 C 36.691406 9.117188 34.679688 11.324219 33.386719 14.105469 C 32.902344 15.164062 32.230469 17.328125 32.230469 17.824219 C 32.230469 18.058594 32.972656 18.539062 36.292969 20.453125 C 38.535156 21.734375 40.421875 22.808594 40.492188 22.835938 C 40.589844 22.863281 40.628906 20.015625 40.628906 14.890625 C 40.628906 10.480469 40.574219 6.886719 40.519531 6.886719 C 40.449219 6.886719 39.984375 7.148438 39.445312 7.464844 Z M 39.445312 7.464844 "/>
<path style=" stroke:none;fill-rule:nonzero;fill:rgb(94.117647%,17.254902%,11.764706%);fill-opacity:1;" d="M 55.847656 9.3125 C 55.546875 9.492188 53.726562 10.550781 51.828125 11.667969 C 49.914062 12.769531 48.34375 13.71875 48.34375 13.773438 C 48.34375 13.828125 48.480469 13.925781 48.660156 14.007812 C 48.824219 14.089844 51.867188 15.839844 55.421875 17.890625 C 60.203125 20.648438 61.921875 21.585938 62.003906 21.460938 C 62.074219 21.363281 62.101562 20.703125 62.046875 20.015625 C 61.855469 16.75 60.875 13.882812 59.195312 11.597656 C 58.398438 10.496094 56.882812 8.953125 56.621094 8.953125 C 56.496094 8.953125 56.152344 9.117188 55.847656 9.3125 Z M 55.847656 9.3125 "/>
<path style=" stroke:none;fill-rule:nonzero;fill:rgb(94.117647%,17.254902%,11.764706%);fill-opacity:1;" d="M 8.402344 13.980469 C 7.078125 14.351562 6.171875 14.875 5.234375 15.839844 C 4.460938 16.625 3.195312 18.539062 3.347656 18.691406 C 3.386719 18.71875 3.582031 18.511719 3.800781 18.222656 C 4.628906 17.136719 5.496094 16.613281 6.871094 16.378906 C 8.375 16.101562 10.246094 16.640625 11.5 17.699219 C 12.683594 18.691406 14.226562 20.398438 15.480469 22.109375 C 17.503906 24.820312 18.125 25.621094 19.117188 26.695312 C 20.355469 28.042969 21.734375 29.214844 23.042969 30.015625 C 24.0625 30.632812 25.464844 31.292969 26.101562 31.460938 C 26.332031 31.515625 26.636719 31.597656 26.789062 31.640625 C 29.777344 32.398438 34.5 32.121094 38.011719 30.964844 C 39.777344 30.398438 45.589844 27.464844 45.589844 27.148438 C 45.589844 27.09375 45.382812 26.941406 45.148438 26.816406 C 44.582031 26.542969 43.507812 25.921875 41.359375 24.667969 C 40.4375 24.132812 39.652344 23.691406 39.597656 23.691406 C 39.554688 23.691406 39.445312 23.621094 39.347656 23.539062 C 39.253906 23.457031 37.574219 22.464844 35.601562 21.335938 L 32.035156 19.269531 L 31.800781 19.585938 C 31.664062 19.753906 31.59375 19.957031 31.636719 20.027344 C 31.679688 20.097656 31.648438 20.109375 31.582031 20.070312 C 31.5 20.015625 31.15625 20.277344 30.824219 20.632812 C 30.023438 21.488281 29.089844 22.246094 28.46875 22.535156 C 28.191406 22.671875 27.988281 22.808594 28.015625 22.851562 C 28.042969 22.890625 27.929688 22.949219 27.78125 22.960938 C 27.613281 22.976562 27.007812 23.085938 26.445312 23.210938 C 24.792969 23.566406 23.550781 23.445312 22.148438 22.769531 C 20.578125 22.011719 19.515625 21.183594 17.4375 19.078125 C 14.378906 16.003906 12.699219 14.710938 11.058594 14.160156 C 10 13.800781 9.269531 13.746094 8.402344 13.980469 Z M 9.738281 14.683594 C 9.695312 14.722656 9.570312 14.738281 9.476562 14.695312 C 9.367188 14.65625 9.40625 14.613281 9.558594 14.613281 C 9.710938 14.601562 9.792969 14.640625 9.738281 14.683594 Z M 11.5 15.042969 C 11.832031 15.191406 11.96875 15.425781 11.722656 15.425781 C 11.460938 15.425781 10.742188 15.109375 10.742188 15 C 10.742188 14.835938 11.074219 14.847656 11.5 15.042969 Z M 8.953125 15.703125 C 9.226562 15.785156 9.253906 15.828125 9.078125 15.894531 C 8.953125 15.949219 8.636719 15.894531 8.386719 15.785156 C 7.960938 15.605469 7.945312 15.59375 8.265625 15.59375 C 8.457031 15.59375 8.757812 15.632812 8.953125 15.703125 Z M 13.152344 15.976562 C 13.207031 16.0625 13.304688 16.074219 13.386719 16.03125 C 13.46875 15.976562 13.496094 16.003906 13.457031 16.074219 C 13.402344 16.15625 13.457031 16.253906 13.566406 16.308594 C 13.773438 16.378906 13.871094 16.804688 13.675781 16.804688 C 13.46875 16.804688 12.671875 16.089844 12.738281 15.964844 C 12.851562 15.800781 13.042969 15.800781 13.152344 15.976562 Z M 11.292969 16.804688 C 11.292969 17.011719 11.046875 16.96875 10.589844 16.707031 C 9.957031 16.324219 10.082031 16.0625 10.742188 16.390625 C 11.046875 16.542969 11.292969 16.734375 11.292969 16.804688 Z M 15.207031 17.617188 C 15.578125 18.003906 15.589844 18.320312 15.234375 18.320312 C 15.011719 18.320312 14.421875 17.519531 14.53125 17.355469 C 14.667969 17.136719 14.792969 17.191406 15.207031 17.617188 Z M 12.710938 17.617188 C 13.085938 17.808594 13.234375 18.320312 12.90625 18.320312 C 12.65625 18.320312 11.953125 17.574219 12.078125 17.453125 C 12.132812 17.398438 12.203125 17.371094 12.246094 17.398438 C 12.285156 17.410156 12.492188 17.519531 12.710938 17.617188 Z M 14.710938 19.792969 C 14.585938 19.945312 14.515625 19.945312 14.324219 19.765625 C 14.199219 19.65625 14.046875 19.601562 13.980469 19.65625 C 13.925781 19.722656 13.910156 19.695312 13.953125 19.613281 C 14.007812 19.519531 13.953125 19.378906 13.84375 19.285156 C 13.675781 19.144531 13.664062 19.0625 13.785156 18.910156 C 13.925781 18.746094 14.035156 18.789062 14.40625 19.160156 C 14.765625 19.503906 14.832031 19.65625 14.710938 19.792969 Z M 16.734375 19.285156 C 17.023438 19.585938 17.09375 19.738281 16.980469 19.847656 C 16.761719 20.070312 16.457031 19.929688 16.183594 19.503906 C 15.960938 19.1875 15.992188 18.871094 16.238281 18.871094 C 16.292969 18.871094 16.515625 19.0625 16.734375 19.285156 Z M 32.421875 20.648438 L 32.792969 21.03125 L 32.367188 21.472656 L 31.925781 21.902344 L 31.527344 21.613281 C 31.058594 21.28125 31.03125 21.101562 31.417969 20.605469 C 31.773438 20.152344 31.953125 20.152344 32.421875 20.648438 Z M 16.074219 20.921875 C 16.363281 21.28125 16.363281 21.335938 16.167969 21.5 C 15.976562 21.667969 15.894531 21.625 15.550781 21.226562 C 15.34375 20.964844 15.191406 20.703125 15.234375 20.632812 C 15.371094 20.414062 15.769531 20.550781 16.074219 20.921875 Z M 18.234375 20.8125 C 18.636719 21.128906 18.691406 21.378906 18.402344 21.613281 C 18.027344 21.929688 17.230469 20.964844 17.589844 20.621094 C 17.726562 20.46875 17.851562 20.507812 18.234375 20.8125 Z M 33.976562 21.515625 C 34.183594 21.613281 34.445312 21.761719 34.542969 21.859375 C 34.640625 21.957031 34.789062 22.039062 34.859375 22.039062 C 34.929688 22.039062 35.300781 22.246094 35.699219 22.507812 C 37.226562 23.472656 38.976562 24.394531 39.144531 24.296875 C 39.226562 24.242188 39.253906 24.257812 39.210938 24.339844 C 39.128906 24.460938 41.566406 25.992188 42.199219 26.226562 C 42.570312 26.351562 42.449219 26.445312 40.628906 27.398438 C 39.113281 28.183594 38.082031 28.609375 36.332031 29.132812 L 35.535156 29.378906 L 32.847656 26.789062 C 31.375 25.371094 30.164062 24.160156 30.164062 24.117188 C 30.164062 24.0625 30.601562 23.71875 31.125 23.359375 C 31.664062 22.988281 32.089844 22.644531 32.089844 22.574219 C 32.089844 22.507812 32.171875 22.453125 32.269531 22.453125 C 32.351562 22.453125 32.65625 22.203125 32.917969 21.914062 C 33.46875 21.292969 33.46875 21.292969 33.976562 21.515625 Z M 30.808594 22.328125 C 31.03125 22.6875 31.015625 22.699219 30.574219 23.097656 L 30.109375 23.511719 L 29.789062 23.140625 C 29.390625 22.644531 29.390625 22.535156 29.859375 22.191406 C 30.328125 21.832031 30.535156 21.875 30.808594 22.328125 Z M 20.054688 22.328125 C 20.496094 22.601562 20.507812 22.617188 20.300781 22.933594 C 20.066406 23.292969 19.957031 23.265625 19.390625 22.824219 C 19.035156 22.546875 19.089844 22.039062 19.460938 22.039062 C 19.53125 22.039062 19.804688 22.164062 20.054688 22.328125 Z M 17.726562 23.195312 C 17.574219 23.566406 17.105469 23.457031 16.871094 22.988281 C 16.691406 22.660156 16.679688 22.535156 16.816406 22.371094 C 16.96875 22.191406 17.039062 22.21875 17.394531 22.574219 C 17.65625 22.824219 17.78125 23.058594 17.726562 23.195312 Z M 29.035156 23.746094 C 29.046875 24.035156 28.964844 24.144531 28.566406 24.3125 C 27.917969 24.574219 27.917969 24.574219 27.726562 24.144531 C 27.476562 23.621094 27.492188 23.59375 28.070312 23.292969 C 28.496094 23.070312 28.605469 23.058594 28.785156 23.210938 C 28.910156 23.320312 29.019531 23.566406 29.035156 23.746094 Z M 21.941406 23.359375 C 22.1875 23.484375 22.394531 23.609375 22.421875 23.621094 C 22.464844 23.664062 22.214844 24.214844 22.105469 24.351562 C 22.0625 24.394531 21.238281 24.007812 21.101562 23.898438 C 21.003906 23.816406 21.25 23.140625 21.375 23.140625 C 21.445312 23.140625 21.691406 23.238281 21.941406 23.359375 Z M 24.183594 23.96875 C 24.460938 23.96875 24.515625 24.035156 24.515625 24.367188 C 24.515625 24.875 24.433594 24.929688 23.71875 24.835938 C 23.179688 24.765625 23.152344 24.738281 23.234375 24.394531 C 23.34375 23.882812 23.414062 23.800781 23.648438 23.882812 C 23.757812 23.925781 24.007812 23.96875 24.183594 23.96875 Z M 26.734375 23.925781 C 26.734375 23.996094 26.773438 24.199219 26.800781 24.394531 C 26.871094 24.792969 26.625 24.929688 25.867188 24.929688 C 25.519531 24.929688 25.480469 24.875 25.480469 24.460938 C 25.480469 24.078125 25.535156 23.980469 25.796875 23.925781 C 26.332031 23.828125 26.71875 23.828125 26.734375 23.925781 Z M 19.144531 24.890625 C 19.144531 24.984375 19.019531 25.125 18.882812 25.191406 C 18.664062 25.316406 18.566406 25.261719 18.277344 24.875 C 17.945312 24.449219 17.933594 24.40625 18.152344 24.199219 C 18.359375 23.980469 18.402344 23.996094 18.757812 24.339844 C 18.964844 24.546875 19.144531 24.78125 19.144531 24.890625 Z M 20.054688 24.171875 C 20.191406 24.285156 20.398438 24.378906 20.496094 24.378906 C 20.605469 24.378906 20.851562 24.492188 21.046875 24.628906 C 21.25 24.765625 21.734375 24.957031 22.105469 25.054688 C 22.492188 25.136719 22.835938 25.261719 22.890625 25.316406 C 22.945312 25.371094 22.792969 25.742188 22.558594 26.144531 L 22.132812 26.886719 L 21.609375 26.363281 C 21.046875 25.8125 20.960938 25.523438 21.25 25.207031 C 21.335938 25.097656 21.265625 25.125 21.085938 25.277344 L 20.769531 25.550781 L 20.164062 24.863281 C 19.832031 24.476562 19.558594 24.132812 19.558594 24.0625 C 19.558594 23.910156 19.75 23.953125 20.054688 24.171875 Z M 30.328125 25.164062 C 31.375 26.253906 31.761719 26.667969 32.519531 27.507812 C 32.875 27.890625 33.21875 28.167969 33.277344 28.125 C 33.332031 28.070312 33.332031 28.097656 33.289062 28.183594 C 33.246094 28.265625 33.480469 28.59375 33.8125 28.925781 C 34.15625 29.257812 34.433594 29.574219 34.433594 29.628906 C 34.433594 29.847656 31.265625 30.070312 29.929688 29.945312 L 28.578125 29.820312 L 27.847656 27.6875 C 27.449219 26.515625 27.148438 25.496094 27.1875 25.414062 C 27.214844 25.332031 27.519531 25.179688 27.835938 25.082031 C 28.164062 24.984375 28.660156 24.78125 28.921875 24.640625 C 29.183594 24.503906 29.433594 24.394531 29.472656 24.378906 C 29.515625 24.378906 29.902344 24.738281 30.328125 25.164062 Z M 24.472656 25.523438 C 24.722656 25.539062 24.929688 25.621094 24.929688 25.714844 C 24.929688 25.800781 24.804688 26.433594 24.640625 27.121094 C 24.445312 27.976562 24.296875 28.347656 24.199219 28.277344 C 23.46875 27.863281 22.449219 27.050781 22.503906 26.941406 C 22.53125 26.859375 22.710938 26.460938 22.875 26.074219 C 23.195312 25.386719 23.234375 25.34375 23.621094 25.414062 C 23.855469 25.453125 24.242188 25.507812 24.472656 25.523438 Z M 26.914062 26.128906 C 27.175781 26.96875 27.820312 29.367188 27.820312 29.53125 C 27.820312 29.710938 27.132812 29.53125 25.894531 29.050781 C 24.996094 28.691406 24.792969 28.554688 24.792969 28.320312 C 24.792969 27.671875 25.21875 25.703125 25.371094 25.59375 C 25.464844 25.539062 25.808594 25.480469 26.128906 25.480469 C 26.691406 25.480469 26.707031 25.496094 26.914062 26.128906 Z M 20.523438 26.238281 C 20.6875 26.542969 20.6875 26.625 20.480469 26.816406 C 20.261719 27.039062 20.21875 27.023438 19.832031 26.652344 C 19.351562 26.199219 19.324219 26.0625 19.652344 25.828125 C 19.957031 25.605469 20.261719 25.742188 20.523438 26.238281 Z M 43.605469 26.929688 C 43.730469 27.039062 43.785156 27.136719 43.730469 27.136719 C 43.6875 27.136719 43.714844 27.257812 43.796875 27.410156 C 43.921875 27.628906 43.867188 27.726562 43.425781 28.03125 L 42.902344 28.375 L 42.667969 28.070312 C 42.324219 27.628906 42.214844 27.230469 42.40625 27.164062 C 42.503906 27.136719 42.640625 27.023438 42.738281 26.914062 C 42.957031 26.667969 43.355469 26.679688 43.605469 26.929688 Z M 22.214844 27.660156 C 22.4375 27.890625 22.4375 27.976562 22.285156 28.222656 C 22.050781 28.59375 21.996094 28.59375 21.457031 28.113281 C 21.015625 27.714844 21.015625 27.714844 21.265625 27.425781 C 21.539062 27.121094 21.773438 27.175781 22.214844 27.660156 Z M 41.664062 28.238281 C 41.800781 28.539062 41.882812 28.800781 41.855469 28.828125 C 40.988281 29.339844 40.5625 29.421875 40.535156 29.078125 C 40.519531 28.953125 40.464844 28.691406 40.421875 28.484375 C 40.339844 28.152344 40.382812 28.085938 40.78125 27.90625 C 41.414062 27.628906 41.386719 27.617188 41.664062 28.238281 Z M 23.980469 28.746094 C 24.433594 29.007812 24.460938 29.171875 24.183594 29.558594 C 23.992188 29.820312 23.980469 29.820312 23.496094 29.558594 C 22.988281 29.285156 22.875 28.96875 23.167969 28.675781 C 23.386719 28.457031 23.511719 28.472656 23.980469 28.746094 Z M 39.609375 29.132812 C 39.859375 29.722656 39.804688 29.820312 39.171875 30.027344 C 38.742188 30.179688 38.660156 30.164062 38.496094 29.929688 C 38.164062 29.503906 38.234375 28.996094 38.675781 28.828125 C 39.28125 28.582031 39.390625 28.621094 39.609375 29.132812 Z M 25.960938 29.667969 C 26.511719 29.902344 26.5 29.890625 26.277344 30.371094 C 26.101562 30.769531 26.042969 30.785156 25.410156 30.523438 C 24.859375 30.289062 24.875 30.304688 25.09375 29.820312 C 25.273438 29.421875 25.328125 29.40625 25.960938 29.667969 Z M 37.367188 29.574219 C 37.40625 29.640625 37.476562 29.875 37.515625 30.109375 C 37.601562 30.46875 37.558594 30.550781 37.253906 30.6875 C 37.0625 30.785156 36.789062 30.855469 36.648438 30.855469 C 36.414062 30.855469 36.085938 30.34375 36.085938 29.957031 C 36.085938 29.667969 37.214844 29.324219 37.367188 29.574219 Z M 35.175781 30.191406 C 35.425781 30.992188 35.398438 31.101562 34.957031 31.253906 C 34.292969 31.488281 34.183594 31.445312 34.03125 30.894531 C 33.867188 30.332031 33.921875 30.21875 34.433594 30.125 C 35.050781 30.015625 35.136719 30.027344 35.175781 30.191406 Z M 28.523438 30.386719 C 28.675781 30.46875 28.484375 31.292969 28.289062 31.363281 C 28.191406 31.40625 27.902344 31.363281 27.640625 31.28125 C 27.230469 31.144531 27.1875 31.089844 27.242188 30.632812 L 27.296875 30.152344 L 27.875 30.234375 C 28.179688 30.289062 28.484375 30.359375 28.523438 30.386719 Z M 33.054688 31.089844 C 33.054688 31.527344 33.042969 31.542969 32.433594 31.542969 C 31.898438 31.542969 31.816406 31.5 31.734375 31.199219 C 31.59375 30.660156 31.746094 30.46875 32.324219 30.414062 C 32.929688 30.371094 33.054688 30.480469 33.054688 31.089844 Z M 30.824219 30.648438 C 30.863281 30.675781 30.835938 30.910156 30.769531 31.15625 C 30.644531 31.570312 30.589844 31.613281 30.050781 31.613281 C 29.472656 31.625 29.472656 31.613281 29.472656 31.128906 C 29.472656 30.855469 29.515625 30.578125 29.570312 30.523438 C 29.679688 30.425781 30.699219 30.523438 30.824219 30.648438 Z M 30.824219 30.648438 "/>
<path style=" stroke:none;fill-rule:nonzero;fill:rgb(94.117647%,17.254902%,11.764706%);fill-opacity:1;" d="M 45.394531 16.902344 C 45.273438 17.257812 45.175781 17.921875 45.175781 18.386719 C 45.175781 19.0625 45.105469 19.324219 44.832031 19.695312 C 44.472656 20.191406 44.363281 20.976562 44.636719 21.15625 C 44.75 21.226562 44.777344 21.679688 44.722656 22.671875 C 44.652344 23.84375 44.679688 24.132812 44.84375 24.3125 C 45.121094 24.574219 45.503906 24.574219 45.78125 24.296875 C 46.027344 24.0625 46.027344 24.023438 46 23.125 C 45.988281 22.769531 46.058594 22.230469 46.140625 21.914062 C 46.320312 21.253906 46.402344 21.238281 48.179688 21.570312 C 49.140625 21.75 49.363281 21.75 49.457031 21.597656 C 49.84375 20.992188 49.265625 20.332031 48.246094 20.207031 C 47.421875 20.109375 46.757812 19.808594 46.550781 19.433594 C 46.441406 19.214844 46.496094 19.078125 46.785156 18.734375 C 47.144531 18.292969 47.171875 18.292969 47.984375 18.386719 C 49.542969 18.582031 49.652344 18.566406 49.691406 18.152344 C 49.761719 17.5625 49.5 17.246094 48.730469 17.011719 C 48.34375 16.902344 47.875 16.804688 47.710938 16.804688 C 47.542969 16.804688 47.144531 16.679688 46.8125 16.527344 C 45.851562 16.101562 45.644531 16.15625 45.394531 16.902344 Z M 45.394531 16.902344 "/>
<path style=" stroke:none;fill-rule:nonzero;fill:rgb(94.117647%,17.254902%,11.764706%);fill-opacity:1;" d="M 53.4375 26.101562 C 53.4375 33.621094 53.453125 34.050781 53.6875 33.96875 C 54.5 33.648438 56.398438 32.273438 57.503906 31.199219 C 59.363281 29.378906 60.574219 27.398438 61.34375 24.957031 C 61.964844 22.960938 62.035156 23.113281 60.117188 22.011719 C 56.566406 19.945312 54.996094 19.035156 54.238281 18.609375 L 53.4375 18.167969 Z M 53.4375 26.101562 "/>
<path style=" stroke:none;fill-rule:nonzero;fill:rgb(94.117647%,17.254902%,11.764706%);fill-opacity:1;" d="M 51.578125 24.753906 C 49.871094 26.265625 46.980469 28.238281 44.625 29.519531 C 43.742188 29.984375 39.886719 31.554688 38.46875 32.023438 C 38.070312 32.148438 37.738281 32.273438 37.738281 32.300781 C 37.738281 32.453125 39.582031 33.582031 40.683594 34.105469 C 43.039062 35.207031 45.90625 35.703125 48.453125 35.425781 C 50.066406 35.246094 52.046875 34.765625 52.144531 34.519531 C 52.171875 34.433594 52.1875 32.09375 52.171875 29.324219 L 52.128906 24.269531 Z M 51.578125 24.753906 "/>
</g>
</svg>
