<?xml version="1.0" encoding="utf-8" ?>
<svg xmlns="http://www.w3.org/2000/svg" xmlns:xlink="http://www.w3.org/1999/xlink" width="100" height="81">
	<path fill="#1C6CE5" d="M52.2568 33.9006C55.6468 33.4946 59.2742 33.7267 62.6912 33.7414C67.2636 33.7611 71.9371 33.6237 76.4915 34.0063C73.3322 39.0787 63.1242 48.8734 56.9969 50.3127C54.5079 50.8973 51.9329 50.7376 49.3996 50.6549C48.9 50.5276 48.3993 50.4194 47.8937 50.3187C48.5522 50.235 49.235 50.2262 49.8985 50.1865C51.3178 45.7077 52.5892 38.6144 52.2568 33.9006Z"/>
	<path fill="#234EC5" d="M22.9558 27.5551C33.0911 27.6222 43.237 27.2125 53.3777 27.5067C52.8148 28.913 51.1888 32.3899 51.7215 33.7509L52.2568 33.9006C52.5892 38.6144 51.3178 45.7077 49.8985 50.1865C49.235 50.2262 48.5522 50.235 47.8937 50.3187C48.3993 50.4194 48.9 50.5276 49.3996 50.6549Q46.81 50.6868 44.2218 50.5983C43.5152 53.4714 42.1678 56.6352 40.6082 59.151C33.8028 70.1284 16.2996 73.4886 4.64205 76.242L9.51653 62.9667C11.0482 58.9123 12.719 54.8698 13.937 50.7099C10.1528 51.049 6.06945 50.74 2.2499 50.7712C5.43377 48.7054 8.20368 45.7189 11.0321 43.1931C13.9603 40.5782 17.3092 38.0619 19.8552 35.068C20.5115 34.2963 20.9276 33.4186 21.3282 32.4952Q22.098 30.0107 22.9558 27.5551Z"/>
	<path fill="#1C6CE5" d="M21.3282 32.4952C23.026 32.308 24.6583 31.8609 26.3564 31.684C30.8406 31.217 42.4245 30.6855 46.4663 31.5799L46.7636 31.8621C46.5586 32.8163 46.0781 33.6654 45.7752 34.5902C44.1968 39.4091 42.4157 43.299 37.9576 46.1671C36.1511 47.3293 34.1271 48.0399 32.0957 48.6945C25.4735 50.8285 20.7224 50.6705 13.937 50.7099C10.1528 51.049 6.06945 50.74 2.2499 50.7712C5.43377 48.7054 8.20368 45.7189 11.0321 43.1931C13.9603 40.5782 17.3092 38.0619 19.8552 35.068C20.5115 34.2963 20.9276 33.4186 21.3282 32.4952Z"/>
	<path fill="#0D92F4" d="M8.01545 27.5653C14.8797 22.0815 19.6344 13.5023 27.5133 8.4739C29.8356 6.99183 32.5887 6.16098 35.3087 5.82649C42.1449 4.98584 52.041 5.6194 59.1491 5.65353C71.1487 5.71116 83.1611 5.43298 95.1579 5.70605C95.7731 7.85321 93.1194 12.2852 92.0434 14.226C88.7687 20.1321 82.762 24.3649 76.3309 26.2084C69.1767 28.2592 60.7697 27.4711 53.3777 27.5067C43.237 27.2125 33.0911 27.6222 22.9558 27.5551Q15.4855 27.4557 8.01545 27.5653Z"/>
</svg>
